<svg version="1.1" id="Layer_1" xmlns="http://www.w3.org/2000/svg" xmlns:xlink="http://www.w3.org/1999/xlink" x="0px" y="0px"
	 viewBox="0 0 60 60" enable-background="new 0 0 60 60" xml:space="preserve">
<polygon fill="none" stroke="#4D6F80" stroke-width="1.5" stroke-miterlimit="10" points="43.6,29.6 16.5,29.6 16.5,2.4 37.1,2.4 
	43.6,10.2 "/>
<path fill="#4D6F80" stroke="#4D6F80" stroke-miterlimit="10" d="M54.4,26.2H5.7c-1.7,0-3,1.3-3,3v18.5c0,1.6,1.3,3,3,3h9.1l3.4-6.5h23.7l3.4,6.5
	h9.1c1.7,0,3-1.4,3-3V29.2C57.4,27.5,56,26.2,54.4,26.2z"/>
<path fill="none" stroke="#4D6F80" stroke-miterlimit="10" d="M41.3,0.9"/>
<polyline fill="none" stroke="#4D6F80" stroke-width="1.5" stroke-miterlimit="10" points="37.1,2.4 37.1,10.2 43.4,10.2 "/>
<polygon fill="none" stroke="#4D6F80" stroke-width="1.5" stroke-miterlimit="10" points="48.3,56.9 11.7,56.9 18.2,44.3 41.8,44.3 
	"/>
</svg>